<?xml version="1.0" encoding="UTF-8"?>
<svg xmlns="http://www.w3.org/2000/svg"
xmlns:xlink="http://www.w3.org/1999/xlink"
version="1.1" baseProfile="full"
width="200px" height="200px"
viewBox="-10 -10 200 200">
<title>Titel der Datei</title>
<desc>Visualprint</desc>
<circle cx="82" cy="76" r="1" />
<text x="82" y="76" fill="red" style="font-size:5px">1</text>
<circle cx="96" cy="44" r="1" />
<text x="96" y="44" fill="red" style="font-size:5px">2</text>
<circle cx="50" cy="5" r="1" />
<text x="50" y="5" fill="red" style="font-size:5px">3</text>
<circle cx="49" cy="8" r="1" />
<text x="49" y="8" fill="red" style="font-size:5px">4</text>
<circle cx="13" cy="7" r="1" />
<text x="13" y="7" fill="red" style="font-size:5px">5</text>
<circle cx="29" cy="89" r="1" />
<text x="29" y="89" fill="red" style="font-size:5px">6</text>
<circle cx="58" cy="30" r="1" />
<text x="58" y="30" fill="red" style="font-size:5px">7</text>
<circle cx="84" cy="39" r="1" />
<text x="84" y="39" fill="red" style="font-size:5px">8</text>
<circle cx="14" cy="24" r="1" />
<text x="14" y="24" fill="red" style="font-size:5px">9</text>
<circle cx="2" cy="39" r="1" />
<text x="2" y="39" fill="red" style="font-size:5px">10</text>
<circle cx="3" cy="82" r="1" />
<text x="3" y="82" fill="red" style="font-size:5px">11</text>
<circle cx="5" cy="10" r="1" />
<text x="5" y="10" fill="red" style="font-size:5px">12</text>
<circle cx="98" cy="52" r="1" />
<text x="98" y="52" fill="red" style="font-size:5px">13</text>
<circle cx="84" cy="25" r="1" />
<text x="84" y="25" fill="red" style="font-size:5px">14</text>
<circle cx="61" cy="59" r="1" />
<text x="61" y="59" fill="red" style="font-size:5px">15</text>
<circle cx="1" cy="65" r="1" />
<text x="1" y="65" fill="red" style="font-size:5px">16</text>
<circle cx="88" cy="51" r="1" />
<text x="88" y="51" fill="red" style="font-size:5px">17</text>
<circle cx="91" cy="2" r="1" />
<text x="91" y="2" fill="red" style="font-size:5px">18</text>
<circle cx="19" cy="32" r="1" />
<text x="19" y="32" fill="red" style="font-size:5px">19</text>
<circle cx="93" cy="3" r="1" />
<text x="93" y="3" fill="red" style="font-size:5px">20</text>
<circle cx="50" cy="93" r="1" />
<text x="50" y="93" fill="red" style="font-size:5px">21</text>
<circle cx="98" cy="14" r="1" />
<text x="98" y="14" fill="red" style="font-size:5px">22</text>
<circle cx="5" cy="42" r="1" />
<text x="5" y="42" fill="red" style="font-size:5px">23</text>
<circle cx="42" cy="9" r="1" />
<text x="42" y="9" fill="red" style="font-size:5px">24</text>
<circle cx="61" cy="62" r="1" />
<text x="61" y="62" fill="red" style="font-size:5px">25</text>
<circle cx="9" cy="97" r="1" />
<text x="9" y="97" fill="red" style="font-size:5px">26</text>
<circle cx="80" cy="55" r="1" />
<text x="80" y="55" fill="red" style="font-size:5px">27</text>
<circle cx="57" cy="69" r="1" />
<text x="57" y="69" fill="red" style="font-size:5px">28</text>
<circle cx="23" cy="15" r="1" />
<text x="23" y="15" fill="red" style="font-size:5px">29</text>
<circle cx="20" cy="70" r="1" />
<text x="20" y="70" fill="red" style="font-size:5px">30</text>
<circle cx="85" cy="60" r="1" />
<text x="85" y="60" fill="red" style="font-size:5px">31</text>
<circle cx="98" cy="5" r="1" />
<text x="98" y="5" fill="red" style="font-size:5px">32</text>
<line x1="96" y1="44" x2="98" y2="52" style="stroke:rgb(0,0,0);stroke-width=1"  />
<line x1="50" y1="5" x2="82" y2="76" style="stroke:rgb(0,0,0);stroke-width=1"  />
<line x1="49" y1="8" x2="58" y2="30" style="stroke:rgb(0,0,0);stroke-width=1"  />
<line x1="13" y1="7" x2="23" y2="15" style="stroke:rgb(0,0,0);stroke-width=1"  />
<line x1="29" y1="89" x2="9" y2="97" style="stroke:rgb(0,0,0);stroke-width=1"  />
<line x1="58" y1="30" x2="61" y2="59" style="stroke:rgb(0,0,0);stroke-width=1"  />
<line x1="84" y1="39" x2="84" y2="25" style="stroke:rgb(0,0,0);stroke-width=1"  />
<line x1="14" y1="24" x2="5" y2="10" style="stroke:rgb(0,0,0);stroke-width=1"  />
<line x1="2" y1="39" x2="19" y2="32" style="stroke:rgb(0,0,0);stroke-width=1"  />
<line x1="3" y1="82" x2="20" y2="70" style="stroke:rgb(0,0,0);stroke-width=1"  />
<line x1="5" y1="10" x2="13" y2="7" style="stroke:rgb(0,0,0);stroke-width=1"  />
<line x1="98" y1="52" x2="82" y2="76" style="stroke:rgb(0,0,0);stroke-width=1"  />
<line x1="84" y1="25" x2="91" y2="2" style="stroke:rgb(0,0,0);stroke-width=1"  />
<line x1="61" y1="59" x2="61" y2="62" style="stroke:rgb(0,0,0);stroke-width=1"  />
<line x1="1" y1="65" x2="5" y2="42" style="stroke:rgb(0,0,0);stroke-width=1"  />
<line x1="88" y1="51" x2="80" y2="55" style="stroke:rgb(0,0,0);stroke-width=1"  />
<line x1="91" y1="2" x2="82" y2="76" style="stroke:rgb(0,0,0);stroke-width=1"  />
<line x1="19" y1="32" x2="14" y2="24" style="stroke:rgb(0,0,0);stroke-width=1"  />
<line x1="93" y1="3" x2="98" y2="5" style="stroke:rgb(0,0,0);stroke-width=1"  />
<line x1="50" y1="93" x2="29" y2="89" style="stroke:rgb(0,0,0);stroke-width=1"  />
<line x1="98" y1="14" x2="96" y2="44" style="stroke:rgb(0,0,0);stroke-width=1"  />
<line x1="5" y1="42" x2="82" y2="76" style="stroke:rgb(0,0,0);stroke-width=1"  />
<line x1="42" y1="9" x2="50" y2="5" style="stroke:rgb(0,0,0);stroke-width=1"  />
<line x1="61" y1="62" x2="84" y2="39" style="stroke:rgb(0,0,0);stroke-width=1"  />
<line x1="9" y1="97" x2="3" y2="82" style="stroke:rgb(0,0,0);stroke-width=1"  />
<line x1="80" y1="55" x2="85" y2="60" style="stroke:rgb(0,0,0);stroke-width=1"  />
<line x1="57" y1="69" x2="50" y2="93" style="stroke:rgb(0,0,0);stroke-width=1"  />
<line x1="23" y1="15" x2="42" y2="9" style="stroke:rgb(0,0,0);stroke-width=1"  />
<line x1="20" y1="70" x2="1" y2="65" style="stroke:rgb(0,0,0);stroke-width=1"  />
<line x1="85" y1="60" x2="82" y2="76" style="stroke:rgb(0,0,0);stroke-width=1"  />
<line x1="98" y1="5" x2="98" y2="14" style="stroke:rgb(0,0,0);stroke-width=1"  />
<line x1="57" y1="69" x2="82" y2="76" style="stroke:rgb(0,0,0);stroke-width=1"  />
<line x1="2" y1="39" x2="82" y2="76" style="stroke:rgb(0,0,0);stroke-width=1"  />
<line x1="49" y1="8" x2="82" y2="76" style="stroke:rgb(0,0,0);stroke-width=1"  />
<line x1="93" y1="3" x2="82" y2="76" style="stroke:rgb(0,0,0);stroke-width=1"  />
<line x1="88" y1="51" x2="82" y2="76" style="stroke:rgb(0,0,0);stroke-width=1"  />
<line x1="82" y1="76" x2="82" y2="76" style="stroke:rgb(0,0,0);stroke-width=1"  />
</svg>